<mxfile host="65bd71144e">
    <diagram id="nDIDQxm9bHd9AL-3DHXK" name="Page-1">
        <mxGraphModel dx="992" dy="659" grid="1" gridSize="10" guides="1" tooltips="1" connect="1" arrows="1" fold="1" page="1" pageScale="1" pageWidth="850" pageHeight="1100" math="0" shadow="0">
            <root>
                <mxCell id="0"/>
                <mxCell id="1" parent="0"/>
                <mxCell id="42" value="" style="group" parent="1" vertex="1" connectable="0">
                    <mxGeometry x="45" y="100" width="890" height="560" as="geometry"/>
                </mxCell>
                <mxCell id="47" value="" style="rounded=1;whiteSpace=wrap;html=1;dashed=1;" vertex="1" parent="42">
                    <mxGeometry x="700" y="-50" width="170" height="230" as="geometry"/>
                </mxCell>
                <mxCell id="34" value="" style="rounded=1;whiteSpace=wrap;html=1;dashed=1;" parent="42" vertex="1">
                    <mxGeometry y="190" width="890" height="270" as="geometry"/>
                </mxCell>
                <mxCell id="4" value="" style="edgeStyle=none;html=1;flowAnimation=1;" parent="42" source="2" target="3" edge="1">
                    <mxGeometry relative="1" as="geometry"/>
                </mxCell>
                <mxCell id="2" value="corpus" style="rounded=1;whiteSpace=wrap;html=1;" parent="42" vertex="1">
                    <mxGeometry x="25" width="120" height="60" as="geometry"/>
                </mxCell>
                <mxCell id="6" value="" style="edgeStyle=none;html=1;flowAnimation=1;" parent="42" source="19" target="5" edge="1">
                    <mxGeometry relative="1" as="geometry"/>
                </mxCell>
                <mxCell id="20" value="" style="edgeStyle=none;html=1;" parent="42" source="3" target="19" edge="1">
                    <mxGeometry relative="1" as="geometry"/>
                </mxCell>
                <mxCell id="3" value="sub-word&amp;nbsp;&lt;div&gt;tokenization&lt;div&gt;BPE&lt;/div&gt;&lt;/div&gt;" style="whiteSpace=wrap;html=1;rounded=1;" parent="42" vertex="1">
                    <mxGeometry x="225" width="120" height="60" as="geometry"/>
                </mxCell>
                <mxCell id="8" value="" style="edgeStyle=none;html=1;flowAnimation=1;" parent="42" source="5" target="7" edge="1">
                    <mxGeometry relative="1" as="geometry"/>
                </mxCell>
                <mxCell id="5" value="input - output pairs matrix" style="whiteSpace=wrap;html=1;rounded=1;" parent="42" vertex="1">
                    <mxGeometry x="555" width="120" height="60" as="geometry"/>
                </mxCell>
                <mxCell id="10" value="" style="edgeStyle=none;html=1;flowAnimation=1;" parent="42" source="7" target="9" edge="1">
                    <mxGeometry relative="1" as="geometry"/>
                </mxCell>
                <mxCell id="46" style="edgeStyle=none;html=1;entryX=1;entryY=0.5;entryDx=0;entryDy=0;flowAnimation=1;" edge="1" parent="42" target="44">
                    <mxGeometry relative="1" as="geometry">
                        <mxPoint x="695" y="80" as="sourcePoint"/>
                        <Array as="points">
                            <mxPoint x="615" y="80"/>
                            <mxPoint x="615" y="140"/>
                        </Array>
                    </mxGeometry>
                </mxCell>
                <mxCell id="7" value="Token Embedding&lt;div&gt;multi dim vectors&lt;/div&gt;" style="whiteSpace=wrap;html=1;rounded=1;" parent="42" vertex="1">
                    <mxGeometry x="725" width="120" height="60" as="geometry"/>
                </mxCell>
                <mxCell id="12" value="" style="edgeStyle=none;html=1;exitX=0.58;exitY=1.04;exitDx=0;exitDy=0;exitPerimeter=0;flowAnimation=1;" parent="42" edge="1">
                    <mxGeometry relative="1" as="geometry">
                        <mxPoint x="788.5999999999999" y="172.39999999999998" as="sourcePoint"/>
                        <mxPoint x="788.8630136986301" y="230" as="targetPoint"/>
                    </mxGeometry>
                </mxCell>
                <mxCell id="9" value="Positional Embedding" style="whiteSpace=wrap;html=1;rounded=1;" parent="42" vertex="1">
                    <mxGeometry x="725" y="100" width="120" height="60" as="geometry"/>
                </mxCell>
                <mxCell id="14" value="" style="edgeStyle=none;html=1;flowAnimation=1;" parent="42" source="24" target="13" edge="1">
                    <mxGeometry relative="1" as="geometry"/>
                </mxCell>
                <mxCell id="11" value="Input Embedding&lt;br&gt;&lt;div&gt;Q, K, V&lt;/div&gt;" style="whiteSpace=wrap;html=1;rounded=1;" parent="42" vertex="1">
                    <mxGeometry x="735" y="230" width="120" height="60" as="geometry"/>
                </mxCell>
                <mxCell id="16" value="" style="edgeStyle=none;html=1;flowAnimation=1;" parent="42" source="13" target="15" edge="1">
                    <mxGeometry relative="1" as="geometry"/>
                </mxCell>
                <mxCell id="45" style="edgeStyle=none;html=1;entryX=0.5;entryY=1;entryDx=0;entryDy=0;flowAnimation=1;" edge="1" parent="42" source="13" target="44">
                    <mxGeometry relative="1" as="geometry"/>
                </mxCell>
                <mxCell id="13" value="Attention Scores" style="whiteSpace=wrap;html=1;rounded=1;" parent="42" vertex="1">
                    <mxGeometry x="395" y="230" width="120" height="60" as="geometry"/>
                </mxCell>
                <mxCell id="18" value="" style="edgeStyle=none;html=1;flowAnimation=1;" parent="42" source="15" target="17" edge="1">
                    <mxGeometry relative="1" as="geometry"/>
                </mxCell>
                <mxCell id="15" value="Attention weights" style="whiteSpace=wrap;html=1;rounded=1;" parent="42" vertex="1">
                    <mxGeometry x="235" y="230" width="120" height="60" as="geometry"/>
                </mxCell>
                <mxCell id="23" value="" style="edgeStyle=none;html=1;flowAnimation=1;" parent="42" source="17" target="22" edge="1">
                    <mxGeometry relative="1" as="geometry"/>
                </mxCell>
                <mxCell id="17" value="Causal Attention&lt;div&gt;- Infinity masking&lt;/div&gt;" style="whiteSpace=wrap;html=1;rounded=1;" parent="42" vertex="1">
                    <mxGeometry x="35" y="230" width="120" height="60" as="geometry"/>
                </mxCell>
                <mxCell id="21" value="" style="edgeStyle=none;html=1;flowAnimation=1;" parent="42" source="3" target="19" edge="1">
                    <mxGeometry relative="1" as="geometry">
                        <mxPoint x="380" y="30" as="sourcePoint"/>
                        <mxPoint x="525" y="30" as="targetPoint"/>
                    </mxGeometry>
                </mxCell>
                <mxCell id="19" value="Token IDs" style="whiteSpace=wrap;html=1;rounded=1;" parent="42" vertex="1">
                    <mxGeometry x="385" width="120" height="60" as="geometry"/>
                </mxCell>
                <mxCell id="27" value="" style="edgeStyle=none;html=1;flowAnimation=1;" parent="42" source="22" target="26" edge="1">
                    <mxGeometry relative="1" as="geometry"/>
                </mxCell>
                <mxCell id="22" value="Masked Multi-head attention" style="whiteSpace=wrap;html=1;rounded=1;" parent="42" vertex="1">
                    <mxGeometry x="35" y="340" width="120" height="60" as="geometry"/>
                </mxCell>
                <mxCell id="25" value="" style="edgeStyle=none;html=1;flowAnimation=1;" parent="42" source="11" target="24" edge="1">
                    <mxGeometry relative="1" as="geometry">
                        <mxPoint x="735" y="260" as="sourcePoint"/>
                        <mxPoint x="535" y="260" as="targetPoint"/>
                    </mxGeometry>
                </mxCell>
                <mxCell id="24" value="Layer Norm 1" style="rounded=1;whiteSpace=wrap;html=1;" parent="42" vertex="1">
                    <mxGeometry x="565" y="230" width="120" height="60" as="geometry"/>
                </mxCell>
                <mxCell id="29" value="" style="edgeStyle=none;html=1;flowAnimation=1;" parent="42" source="26" target="28" edge="1">
                    <mxGeometry relative="1" as="geometry"/>
                </mxCell>
                <mxCell id="26" value="Dropout" style="whiteSpace=wrap;html=1;rounded=1;" parent="42" vertex="1">
                    <mxGeometry x="235" y="340" width="120" height="60" as="geometry"/>
                </mxCell>
                <mxCell id="31" value="" style="edgeStyle=none;html=1;flowAnimation=1;" parent="42" source="28" target="30" edge="1">
                    <mxGeometry relative="1" as="geometry"/>
                </mxCell>
                <mxCell id="28" value="Layer Norm 2" style="whiteSpace=wrap;html=1;rounded=1;" parent="42" vertex="1">
                    <mxGeometry x="395" y="340" width="120" height="60" as="geometry"/>
                </mxCell>
                <mxCell id="33" value="" style="edgeStyle=none;html=1;flowAnimation=1;" parent="42" source="30" target="32" edge="1">
                    <mxGeometry relative="1" as="geometry"/>
                </mxCell>
                <mxCell id="30" value="Feedforward NN" style="whiteSpace=wrap;html=1;rounded=1;" parent="42" vertex="1">
                    <mxGeometry x="565" y="340" width="120" height="60" as="geometry"/>
                </mxCell>
                <mxCell id="37" value="" style="edgeStyle=none;html=1;" parent="42" source="32" target="36" edge="1">
                    <mxGeometry relative="1" as="geometry"/>
                </mxCell>
                <mxCell id="32" value="Dropout" style="whiteSpace=wrap;html=1;rounded=1;" parent="42" vertex="1">
                    <mxGeometry x="735" y="340" width="120" height="60" as="geometry"/>
                </mxCell>
                <mxCell id="35" value="Self Attention Block" style="text;html=1;align=center;verticalAlign=middle;whiteSpace=wrap;rounded=0;fontStyle=1" parent="42" vertex="1">
                    <mxGeometry x="405" y="420" width="140" height="30" as="geometry"/>
                </mxCell>
                <mxCell id="39" value="" style="edgeStyle=none;html=1;" parent="42" source="36" target="38" edge="1">
                    <mxGeometry relative="1" as="geometry"/>
                </mxCell>
                <mxCell id="36" value="Final Layer Norm" style="whiteSpace=wrap;html=1;rounded=1;" parent="42" vertex="1">
                    <mxGeometry x="735" y="500" width="120" height="60" as="geometry"/>
                </mxCell>
                <mxCell id="41" value="" style="edgeStyle=none;html=1;" parent="42" source="38" target="40" edge="1">
                    <mxGeometry relative="1" as="geometry"/>
                </mxCell>
                <mxCell id="38" value="Output Layer" style="whiteSpace=wrap;html=1;rounded=1;" parent="42" vertex="1">
                    <mxGeometry x="535" y="500" width="120" height="60" as="geometry"/>
                </mxCell>
                <mxCell id="40" value="Logits matrix for next token prediction" style="whiteSpace=wrap;html=1;rounded=1;" parent="42" vertex="1">
                    <mxGeometry x="335" y="500" width="120" height="60" as="geometry"/>
                </mxCell>
                <mxCell id="44" value="Context Vector" style="rounded=1;whiteSpace=wrap;html=1;" vertex="1" parent="42">
                    <mxGeometry x="395" y="110" width="120" height="60" as="geometry"/>
                </mxCell>
                <mxCell id="49" value="Input Embedding" style="text;html=1;align=center;verticalAlign=middle;whiteSpace=wrap;rounded=0;" vertex="1" parent="1">
                    <mxGeometry x="800" y="60" width="60" height="30" as="geometry"/>
                </mxCell>
            </root>
        </mxGraphModel>
    </diagram>
</mxfile>